<svg width="160" height="160" viewBox="0 0 160 160" fill="none" xmlns="http://www.w3.org/2000/svg">
  <rect width="160" height="160" rx="32" fill="url(#bg)"/>
  <g filter="url(#glow)">
    <path d="M61.2 46.5c8.3-6.4 19.9-6.8 30-3.2 7.8 2.8 13.2 10.5 12.1 19l9.8 1.7c2.5.4 4.4 2.7 4.1 5.3-.3 2.4-2.3 4.2-4.7 4.2l-8.2-.2c-1 .1-1.6.3-2.1 1.3-1.1 2-1.7 4.4-2.8 6.3 4 2.9 8.8 5 13.9 5.3 2.8.2 4.8 2.6 4.4 5.4-.4 2.7-2.8 4.7-5.5 4.4-6.3-.6-12.3-3-17.4-6.6l-2.7 4.1 6.1 5.5c2 1.8 2.1 4.8.3 6.8-1.8 2-4.9 2.1-6.9.3l-6.4-5.8c-4.5 3.2-9.7 5.4-15.1 6.2-2.8.4-5.4-1.4-6-4.2-.5-2.7 1.3-5.4 4-6 4-.8 7.8-2.6 11.2-5-4.7-4.6-8.5-10.3-10.9-16.6-2.5-6.3-3.3-13.6-.6-20 .8-1.8 1.8-3.4 3-4.9l-5.5-3.4c-2.3-1.4-3.1-4.3-1.7-6.6 1.4-2.3 4.3-3.1 6.6-1.7l4.9 3z" fill="#15d08a"/>
    <path d="M91.4 60.7c-3-5.6-10.9-7.4-15.9-3.3-4.3 3.5-4.9 9.9-1.9 14.5 3.1 4.7 8.8 7.6 14.5 7.8 3.3.1 6.2-2.5 6.2-5.8-.1-4.6-.9-9.2-2.9-13.2z" fill="#0e1014" fill-opacity="0.55"/>
  </g>
  <text x="80" y="145" text-anchor="middle" fill="#15d08a" font-size="24" font-weight="700" font-family="Inter, 'Noto Sans KR', sans-serif">
    Gecko Sprint
  </text>
  <defs>
    <linearGradient id="bg" x1="20" y1="12" x2="140" y2="148" gradientUnits="userSpaceOnUse">
      <stop stop-color="#0e1014"/>
      <stop offset="1" stop-color="#2b2f36"/>
    </linearGradient>
    <filter id="glow" x="30" y="30" width="100" height="110" filterUnits="userSpaceOnUse" color-interpolation-filters="sRGB">
      <feGaussianBlur stdDeviation="4" result="coloredBlur"/>
      <feBlend in="SourceGraphic" in2="coloredBlur" mode="normal"/>
    </filter>
  </defs>
</svg>
